# Blender v3.6.0 OBJ File: ''
# www.blender.org
mtllib light.mtl
o Sphere
v 0.000000 0.831470 -0.555570
v 0.000000 0.555570 -0.831470
v 0.000000 0.195090 -0.980785
v 0.000000 0.000000 -1.000000
v 0.000000 -0.195090 -0.980785
v -0.003174 -0.574763 -0.845382
v 0.038060 0.980785 -0.191342
v 0.074658 0.923880 -0.375330
v 0.108386 0.831470 -0.544895
v 0.137950 0.707107 -0.693520
v 0.162212 0.555570 -0.815493
v 0.180240 0.382683 -0.906127
v 0.191342 0.195090 -0.961940
v 0.195090 0.000000 -0.980785
v 0.191342 -0.195090 -0.961940
v 0.180240 -0.382683 -0.906127
v 0.162519 -0.564853 -0.821120
v 0.145656 -0.840589 -0.764701
v 0.135494 -1.119041 -0.675149
v 0.122606 -1.397238 -0.525760
v 0.096282 -1.804988 -0.330096
v 0.074658 0.980785 -0.180240
v 0.146447 0.923880 -0.353553
v 0.212608 0.831470 -0.513280
v 0.270598 0.707107 -0.653281
v 0.318190 0.555570 -0.768178
v 0.353553 0.382683 -0.853553
v 0.375330 0.195090 -0.906127
v 0.382683 0.000000 -0.923879
v 0.375330 -0.195090 -0.906127
v 0.353553 -0.382683 -0.853553
v 0.319706 -0.561765 -0.771533
v 0.291540 -0.822890 -0.709875
v 0.265011 -1.115590 -0.630338
v 0.221403 -1.407133 -0.496144
v 0.152290 -1.802410 -0.310413
v 0.108386 0.980785 -0.162212
v 0.212608 0.923880 -0.318190
v 0.308658 0.831470 -0.461940
v 0.392847 0.707107 -0.587938
v 0.461940 0.555570 -0.691342
v 0.513280 0.382683 -0.768178
v 0.544895 0.195090 -0.815493
v 0.555570 0.000000 -0.831469
v 0.544895 -0.195090 -0.815493
v 0.513280 -0.382683 -0.768178
v 0.464898 -0.563200 -0.695116
v 0.424454 -0.814492 -0.634718
v 0.383324 -1.114163 -0.564541
v 0.311062 -1.412967 -0.447118
v 0.201517 -1.801235 -0.279603
v 0.137950 0.980785 -0.137950
v 0.270598 0.923880 -0.270598
v 0.392847 0.831470 -0.392847
v 0.500000 0.707107 -0.500000
v 0.587938 0.555570 -0.587938
v 0.653281 0.382683 -0.653281
v 0.693520 0.195090 -0.693520
v 0.707107 0.000000 -0.707107
v 0.693520 -0.195090 -0.693520
v 0.653281 -0.382683 -0.653281
v 0.592816 -0.565515 -0.592259
v 0.541030 -0.812821 -0.539173
v 0.486621 -1.114580 -0.478747
v 0.388127 -1.412867 -0.380396
v 0.242625 -1.800358 -0.238835
v 0.162212 0.980785 -0.108386
v 0.318190 0.923880 -0.212608
v 0.461940 0.831470 -0.308658
v 0.587938 0.707107 -0.392847
v 0.691342 0.555570 -0.461940
v 0.768178 0.382683 -0.513280
v 0.815493 0.195090 -0.544895
v 0.831470 0.000000 -0.555570
v 0.815493 -0.195090 -0.544895
v 0.768178 -0.382683 -0.513280
v 0.697491 -0.566542 -0.465968
v 0.636941 -0.814986 -0.424458
v 0.570425 -1.116606 -0.375511
v 0.448871 -1.407726 -0.298565
v 0.274321 -1.799417 -0.189502
v 0.000000 1.000000 0.000000
v 0.180240 0.980785 -0.074658
v 0.353553 0.923880 -0.146447
v 0.513280 0.831470 -0.212607
v 0.653281 0.707107 -0.270598
v 0.768178 0.555570 -0.318190
v 0.853553 0.382683 -0.353553
v 0.906127 0.195090 -0.375330
v 0.923879 0.000000 -0.382683
v 0.906127 -0.195090 -0.375330
v 0.853553 -0.382683 -0.353553
v 0.774266 -0.565719 -0.321128
v 0.708133 -0.818585 -0.293338
v 0.631454 -1.119303 -0.258241
v 0.490373 -1.399004 -0.205964
v 0.295201 -1.798265 -0.134437
v 0.191342 0.980785 -0.038060
v 0.375330 0.923880 -0.074658
v 0.544895 0.831470 -0.108386
v 0.693520 0.707107 -0.137950
v 0.815493 0.555570 -0.162212
v 0.906127 0.382683 -0.180240
v 0.961940 0.195090 -0.191342
v 0.980785 0.000000 -0.195090
v 0.961940 -0.195090 -0.191342
v 0.906127 -0.382683 -0.180240
v 0.820471 -0.563794 -0.163760
v 0.751034 -0.820337 -0.150344
v 0.667110 -1.121709 -0.131660
v 0.511607 -1.388343 -0.107138
v 0.304533 -1.797284 -0.075454
v 0.195090 0.980785 0.000000
v 0.382683 0.923880 0.000000
v 0.555570 0.831470 0.000000
v 0.707107 0.707107 -0.000000
v 0.831469 0.555570 0.000000
v 0.923879 0.382683 -0.000000
v 0.980785 0.195090 0.000000
v 1.000000 0.000000 0.000000
v 0.980785 -0.195090 0.000000
v 0.923879 -0.382683 -0.000000
v 0.835012 -0.561665 -0.000335
v 0.763958 -0.819434 -0.001544
v 0.676575 -1.123060 -0.001035
v 0.513040 -1.379423 -0.006293
v 0.302003 -1.797039 -0.014547
v 0.191342 0.980785 0.038060
v 0.375330 0.923880 0.074658
v 0.544895 0.831470 0.108386
v 0.693520 0.707107 0.137950
v 0.815493 0.555570 0.162212
v 0.906127 0.382683 0.180240
v 0.961940 0.195090 0.191342
v 0.980785 0.000000 0.195090
v 0.961940 -0.195090 0.191342
v 0.906127 -0.382683 0.180240
v 0.818165 -0.560430 0.162702
v 0.746259 -0.814600 0.147196
v 0.659898 -1.123670 0.129928
v 0.495295 -1.373799 0.094701
v 0.287983 -1.797994 0.046512
v 0.180240 0.980785 0.074658
v 0.353553 0.923880 0.146447
v 0.513280 0.831470 0.212608
v 0.653281 0.707107 0.270598
v 0.768178 0.555570 0.318190
v 0.853553 0.382683 0.353553
v 0.906127 0.195090 0.375330
v 0.923879 0.000000 0.382683
v 0.906127 -0.195090 0.375330
v 0.853553 -0.382683 0.353553
v 0.770470 -0.560206 0.319971
v 0.699106 -0.806976 0.291123
v 0.617717 -1.122414 0.257819
v 0.458070 -1.374805 0.196097
v 0.263150 -1.800367 0.106553
v 0.162212 0.980785 0.108386
v 0.318190 0.923880 0.212608
v 0.461940 0.831470 0.308658
v 0.587938 0.707107 0.392847
v 0.691341 0.555570 0.461940
v 0.768178 0.382683 0.513280
v 0.815493 0.195090 0.544895
v 0.831469 0.000000 0.555570
v 0.815493 -0.195090 0.544895
v 0.768193 -0.382795 0.513534
v 0.693508 -0.561339 0.467437
v 0.624256 -0.797878 0.426108
v 0.550477 -1.122195 0.381978
v 0.401726 -1.385367 0.296046
v 0.228329 -1.803784 0.164440
v 0.137950 0.980785 0.137950
v 0.270598 0.923880 0.270598
v 0.392847 0.831470 0.392847
v 0.500000 0.707107 0.500000
v 0.587938 0.555570 0.587938
v 0.653281 0.382683 0.653281
v 0.693520 0.195090 0.693520
v 0.707106 0.000000 0.707107
v 0.693520 -0.195090 0.693520
v 0.653446 -0.383847 0.655938
v 0.589566 -0.563241 0.599805
v 0.524806 -0.791347 0.550284
v 0.459264 -1.125611 0.500743
v 0.327828 -1.403655 0.391666
v 0.184519 -1.808300 0.218159
v 0.108386 0.980785 0.162212
v 0.212607 0.923880 0.318190
v 0.308658 0.831470 0.461940
v 0.392847 0.707107 0.587938
v 0.461940 0.555570 0.691342
v 0.513280 0.382683 0.768178
v 0.544895 0.195090 0.815493
v 0.555570 0.000000 0.831469
v 0.544932 -0.195350 0.816086
v 0.513676 -0.385617 0.774871
v 0.461737 -0.567600 0.715113
v 0.404197 -0.791300 0.661605
v 0.346738 -1.134430 0.609960
v 0.239073 -1.427031 0.478223
v 0.133011 -1.813807 0.265706
v 0.074658 0.980785 0.180240
v 0.146447 0.923880 0.353553
v 0.212607 0.831470 0.513280
v 0.270598 0.707107 0.653281
v 0.318189 0.555570 0.768178
v 0.353553 0.382683 0.853553
v 0.375330 0.195090 0.906127
v 0.382683 0.000000 0.923879
v 0.375465 -0.196046 0.908310
v 0.353391 -0.388930 0.867465
v 0.314649 -0.574965 0.808644
v 0.266514 -0.800720 0.755734
v 0.216322 -1.147233 0.699139
v 0.139078 -1.450896 0.549349
v 0.075637 -1.819483 0.305363
v 0.038060 0.980785 0.191342
v 0.074658 0.923880 0.375330
v 0.108386 0.831470 0.544895
v 0.137950 0.707107 0.693520
v 0.162212 0.555570 0.815493
v 0.180240 0.382683 0.906127
v 0.191342 0.195090 0.961939
v 0.195090 0.000000 0.980785
v 0.191528 -0.196741 0.965694
v 0.178580 -0.393249 0.929175
v 0.152601 -0.585990 0.875901
v 0.115934 -0.828468 0.822573
v 0.076631 -1.159904 0.749207
v 0.033545 -1.472249 0.594610
v 0.014559 -1.824970 0.335136
v -0.000000 0.980785 0.195090
v -0.000000 0.923880 0.382683
v -0.000000 0.831470 0.555570
v -0.000000 0.707107 0.707107
v -0.000000 0.555570 0.831469
v 0.000000 0.382683 0.923879
v -0.000000 0.195090 0.980785
v -0.000000 0.000000 0.999999
v -0.000211 -0.197699 0.986546
v -0.004689 -0.398121 0.955730
v -0.018191 -0.604194 0.905733
v -0.039280 -0.866278 0.844527
v -0.059196 -1.176005 0.758430
v -0.070651 -1.489578 0.609315
v -0.048696 -1.830222 0.353895
v -0.038060 0.980785 0.191342
v -0.074658 0.923880 0.375330
v -0.108386 0.831470 0.544895
v -0.137950 0.707107 0.693520
v -0.162212 0.555570 0.815493
v -0.180240 0.382683 0.906127
v -0.191342 0.195090 0.961939
v -0.195091 0.000000 0.980785
v -0.192071 -0.198224 0.968554
v -0.187677 -0.403423 0.938488
v -0.186642 -0.630327 0.888340
v -0.187306 -0.899849 0.820375
v -0.184342 -1.196110 0.730025
v -0.168533 -1.504057 0.594651
v -0.112024 -1.835461 0.360225
v -0.074658 0.980785 0.180240
v -0.146447 0.923880 0.353553
v -0.212608 0.831470 0.513280
v -0.270598 0.707107 0.653281
v -0.318190 0.555570 0.768177
v -0.353553 0.382683 0.853553
v -0.375330 0.195090 0.906127
v -0.382683 0.000000 0.923879
v -0.375374 -0.198507 0.909728
v -0.358419 -0.411654 0.876533
v -0.339814 -0.654864 0.824462
v -0.318172 -0.926071 0.753978
v -0.295819 -1.214131 0.673902
v -0.257302 -1.516772 0.555611
v -0.173708 -1.840782 0.352693
v -0.108386 0.980785 0.162212
v -0.212608 0.923880 0.318190
v -0.308658 0.831470 0.461939
v -0.392847 0.707107 0.587938
v -0.461940 0.555570 0.691341
v -0.513280 0.382683 0.768178
v -0.544895 0.195090 0.815493
v -0.555570 -0.000000 0.831468
v -0.540276 -0.199598 0.812797
v -0.509538 -0.421350 0.778890
v -0.472680 -0.672820 0.728076
v -0.432702 -0.944249 0.664986
v -0.390555 -1.229629 0.592967
v -0.335883 -1.527818 0.497727
v -0.231552 -1.846078 0.330401
v -0.137950 0.980785 0.137950
v -0.270598 0.923880 0.270598
v -0.392847 0.831470 0.392847
v -0.500000 0.707107 0.500000
v -0.587938 0.555570 0.587937
v -0.653281 0.382683 0.653281
v -0.693520 0.195090 0.693520
v -0.706936 -0.000009 0.706945
v -0.682583 -0.200494 0.686986
v -0.637897 -0.428224 0.654707
v -0.584967 -0.683319 0.610005
v -0.529235 -0.955226 0.557530
v -0.471412 -1.239689 0.498825
v -0.405423 -1.535439 0.428090
v -0.283256 -1.850748 0.293548
v 0.005444 -1.956665 0.016262
v -0.162212 0.980785 0.108386
v -0.318190 0.923880 0.212607
v -0.461940 0.831470 0.308658
v -0.587938 0.707107 0.392847
v -0.691341 0.555570 0.461939
v -0.768177 0.382683 0.513280
v -0.815493 0.195090 0.544895
v -0.831158 -0.000013 0.555371
v -0.799579 -0.200937 0.537619
v -0.744194 -0.429521 0.511793
v -0.678537 -0.685985 0.477469
v -0.610700 -0.958545 0.438984
v -0.541595 -1.243112 0.397388
v -0.461660 -1.539408 0.345024
v -0.326040 -1.854516 0.243225
v -0.180240 0.980785 0.074658
v -0.353553 0.923880 0.146447
v -0.513280 0.831470 0.212607
v -0.653281 0.707107 0.270598
v -0.768177 0.555570 0.318189
v -0.853553 0.382683 0.353553
v -0.906127 0.195090 0.375330
v -0.923764 -0.000002 0.382636
v -0.891418 -0.198524 0.370921
v -0.827099 -0.424722 0.353694
v -0.753461 -0.680710 0.333267
v -0.676779 -0.954315 0.310832
v -0.597555 -1.240483 0.286409
v -0.509175 -1.538183 0.255889
v -0.357052 -1.856486 0.181775
v -0.191342 0.980785 0.038060
v -0.375330 0.923880 0.074658
v -0.544895 0.831470 0.108386
v -0.693520 0.707107 0.137950
v -0.815493 0.555570 0.162211
v -0.906127 0.382683 0.180240
v -0.961939 0.195090 0.191341
v -0.980784 0.000000 0.195090
v -0.953183 -0.196190 0.190011
v -0.884219 -0.414336 0.182811
v -0.808188 -0.667321 0.178597
v -0.726532 -0.942532 0.173946
v -0.641331 -1.231040 0.168780
v -0.541034 -1.532327 0.157475
v -0.373714 -1.856336 0.111538
v -0.195090 0.980785 -0.000000
v -0.382683 0.923880 -0.000000
v -0.555570 0.831470 -0.000000
v -0.707107 0.707107 -0.000000
v -0.831469 0.555570 -0.000000
v -0.923879 0.382683 -0.000000
v -0.980785 0.195090 -0.000000
v -0.999999 0.000000 -0.000000
v -0.978772 -0.195108 0.000010
v -0.913371 -0.399181 0.002895
v -0.836935 -0.647338 0.014357
v -0.755641 -0.924042 0.028036
v -0.667479 -1.215899 0.042592
v -0.559713 -1.521358 0.053153
v -0.374272 -1.854678 0.035703
v -0.191342 0.980785 -0.038060
v -0.375330 0.923880 -0.074658
v -0.544895 0.831470 -0.108386
v -0.693520 0.707107 -0.137950
v -0.815493 0.555570 -0.162212
v -0.906127 0.382683 -0.180240
v -0.961939 0.195090 -0.191342
v -0.980784 0.000000 -0.195091
v -0.961934 -0.195090 -0.191341
v -0.905432 -0.388841 -0.179832
v -0.832570 -0.620946 -0.156083
v -0.758803 -0.899783 -0.125874
v -0.672148 -1.195872 -0.091530
v -0.560854 -1.505429 -0.057011
v -0.358510 -1.851254 -0.041717
v -0.180240 0.980785 -0.074658
v -0.353553 0.923880 -0.146447
v -0.513279 0.831470 -0.212607
v -0.653281 0.707107 -0.270598
v -0.768177 0.555570 -0.318190
v -0.853553 0.382683 -0.353553
v -0.906127 0.195090 -0.375330
v -0.923878 0.000000 -0.382683
v -0.906127 -0.195090 -0.375330
v -0.856600 -0.386150 -0.354572
v -0.788956 -0.592333 -0.322620
v -0.727859 -0.874764 -0.283901
v -0.648550 -1.173254 -0.232099
v -0.538425 -1.484454 -0.171395
v -0.327738 -1.846239 -0.116500
v -0.162212 0.980785 -0.108386
v -0.318189 0.923880 -0.212607
v -0.461939 0.831470 -0.308658
v -0.587938 0.707107 -0.392847
v -0.691341 0.555570 -0.461940
v -0.768177 0.382683 -0.513280
v -0.815493 0.195090 -0.544895
v -0.831468 0.000000 -0.555570
v -0.815493 -0.195090 -0.544895
v -0.770353 -0.385305 -0.514795
v -0.708307 -0.580067 -0.474709
v -0.657747 -0.856570 -0.438950
v -0.589761 -1.151339 -0.373840
v -0.485434 -1.458003 -0.282904
v -0.284395 -1.840422 -0.183678
v -0.137950 0.980785 -0.137950
v -0.270598 0.923880 -0.270598
v -0.392847 0.831470 -0.392847
v -0.500000 0.707107 -0.500000
v -0.587937 0.555570 -0.587938
v -0.653281 0.382683 -0.653281
v -0.693519 0.195090 -0.693520
v -0.707106 0.000000 -0.707106
v -0.693583 -0.195192 -0.693644
v -0.657977 -0.390128 -0.661161
v -0.607148 -0.589709 -0.614553
v -0.560736 -0.861692 -0.576748
v -0.498193 -1.135177 -0.497430
v -0.404202 -1.428667 -0.377181
v -0.230788 -1.834024 -0.240079
v -0.108386 0.980785 -0.162212
v -0.212607 0.923880 -0.318190
v -0.308658 0.831470 -0.461939
v -0.392847 0.707107 -0.587938
v -0.461939 0.555570 -0.691341
v -0.513280 0.382683 -0.768177
v -0.544895 0.195090 -0.815493
v -0.555569 0.000000 -0.831469
v -0.545746 -0.196441 -0.817150
v -0.521274 -0.395359 -0.782193
v -0.485302 -0.603933 -0.731806
v -0.449360 -0.878358 -0.685953
v -0.388503 -1.127336 -0.590008
v -0.306652 -1.404705 -0.448250
v -0.168900 -1.827168 -0.284582
v -0.074658 0.980785 -0.180240
v -0.146446 0.923880 -0.353553
v -0.212607 0.831470 -0.513279
v -0.270598 0.707107 -0.653281
v -0.318189 0.555570 -0.768177
v -0.353553 0.382683 -0.853553
v -0.375330 0.195090 -0.906127
v -0.382683 0.000000 -0.923879
v -0.376287 -0.196608 -0.907989
v -0.360591 -0.393845 -0.866437
v -0.339732 -0.606387 -0.810520
v -0.317981 -0.887269 -0.760497
v -0.267219 -1.125394 -0.654143
v -0.200700 -1.389909 -0.498369
v -0.101801 -1.820546 -0.315816
v -0.038060 0.980785 -0.191342
v -0.074658 0.923880 -0.375330
v -0.108386 0.831470 -0.544895
v -0.137950 0.707107 -0.693520
v -0.162211 0.555570 -0.815493
v -0.180240 0.382683 -0.906127
v -0.191341 0.195090 -0.961939
v -0.195090 0.000000 -0.980784
v -0.191509 -0.195356 -0.962266
v -0.183382 -0.387685 -0.912228
v -0.174415 -0.592809 -0.845450
v -0.167946 -0.881306 -0.796289
v -0.136554 -1.125206 -0.689891
v -0.091771 -1.385608 -0.528082
v -0.033085 -1.814746 -0.333461
v 0.000000 0.980785 -0.195090
v 0.000000 0.923880 -0.382683
v 0.000000 0.707107 -0.707107
v 0.000000 0.382683 -0.923879
v -0.000373 -0.383276 -0.924606
v -0.009323 -0.862395 -0.794899
v 0.000096 -1.123116 -0.696060
v 0.017236 -1.388817 -0.536756
v 0.033771 -1.809395 -0.338042
vt 0.750000 0.812500
vt 0.750000 0.875000
vt 0.718750 0.875000
vt 0.718750 0.812500
vt 0.750000 0.312500
vt 0.750000 0.375000
vt 0.718750 0.375000
vt 0.718750 0.312500
vt 0.750000 0.750000
vt 0.718750 0.750000
vt 0.750000 0.250000
vt 0.718750 0.250000
vt 0.750000 0.687500
vt 0.718750 0.687500
vt 0.750000 0.187500
vt 0.718750 0.187500
vt 0.750000 0.625000
vt 0.718750 0.625000
vt 0.750000 0.125000
vt 0.718750 0.125000
vt 0.750000 0.562500
vt 0.718750 0.562500
vt 0.750000 0.062500
vt 0.718750 0.062500
vt 0.750000 0.500000
vt 0.718750 0.500000
vt 0.750000 0.937500
vt 0.734375 1.000000
vt 0.718750 0.937500
vt 0.734375 0.000000
vt 0.750000 0.437500
vt 0.718750 0.437500
vt 0.687500 0.500000
vt 0.687500 0.437500
vt 0.687500 0.937500
vt 0.687500 0.875000
vt 0.687500 0.375000
vt 0.687500 0.812500
vt 0.687500 0.312500
vt 0.687500 0.750000
vt 0.687500 0.250000
vt 0.687500 0.687500
vt 0.687500 0.187500
vt 0.687500 0.625000
vt 0.687500 0.125000
vt 0.687500 0.562500
vt 0.687500 0.062500
vt 0.703125 1.000000
vt 0.703125 0.000000
vt 0.656250 0.250000
vt 0.656250 0.187500
vt 0.656250 0.687500
vt 0.656250 0.625000
vt 0.656250 0.125000
vt 0.656250 0.562500
vt 0.656250 0.062500
vt 0.656250 0.500000
vt 0.671875 1.000000
vt 0.656250 0.937500
vt 0.671875 0.000000
vt 0.656250 0.437500
vt 0.656250 0.875000
vt 0.656250 0.375000
vt 0.656250 0.812500
vt 0.656250 0.312500
vt 0.656250 0.750000
vt 0.625000 0.437500
vt 0.625000 0.375000
vt 0.625000 0.875000
vt 0.625000 0.812500
vt 0.625000 0.312500
vt 0.625000 0.750000
vt 0.625000 0.250000
vt 0.625000 0.687500
vt 0.625000 0.187500
vt 0.625000 0.625000
vt 0.625000 0.125000
vt 0.625000 0.562500
vt 0.625000 0.062500
vt 0.625000 0.500000
vt 0.640625 1.000000
vt 0.625000 0.937500
vt 0.640625 0.000000
vt 0.593750 0.187500
vt 0.593750 0.125000
vt 0.593750 0.625000
vt 0.593750 0.562500
vt 0.593750 0.062500
vt 0.593750 0.500000
vt 0.609375 1.000000
vt 0.593750 0.937500
vt 0.609375 0.000000
vt 0.593750 0.437500
vt 0.593750 0.875000
vt 0.593750 0.375000
vt 0.593750 0.812500
vt 0.593750 0.312500
vt 0.593750 0.750000
vt 0.593750 0.250000
vt 0.593750 0.687500
vt 0.562500 0.875000
vt 0.562500 0.812500
vt 0.562500 0.375000
vt 0.562500 0.312500
vt 0.562500 0.750000
vt 0.562500 0.250000
vt 0.562500 0.687500
vt 0.562500 0.187500
vt 0.562500 0.625000
vt 0.562500 0.125000
vt 0.562500 0.562500
vt 0.562500 0.062500
vt 0.562500 0.500000
vt 0.578125 1.000000
vt 0.562500 0.937500
vt 0.578125 0.000000
vt 0.562500 0.437500
vt 0.531250 0.625000
vt 0.531250 0.562500
vt 0.531250 0.125000
vt 0.531250 0.062500
vt 0.531250 0.500000
vt 0.546875 1.000000
vt 0.531250 0.937500
vt 0.546875 0.000000
vt 0.531250 0.437500
vt 0.531250 0.875000
vt 0.531250 0.375000
vt 0.531250 0.812500
vt 0.531250 0.312500
vt 0.531250 0.750000
vt 0.531250 0.250000
vt 0.531250 0.687500
vt 0.531250 0.187500
vt 0.500000 0.375000
vt 0.500000 0.312500
vt 0.500000 0.812500
vt 0.500000 0.750000
vt 0.500000 0.250000
vt 0.500000 0.687500
vt 0.500000 0.187500
vt 0.500000 0.625000
vt 0.500000 0.125000
vt 0.500000 0.562500
vt 0.500000 0.062500
vt 0.500000 0.500000
vt 0.515625 1.000000
vt 0.500000 0.937500
vt 0.515625 0.000000
vt 0.500000 0.437500
vt 0.500000 0.875000
vt 0.468750 0.125000
vt 0.468750 0.062500
vt 0.468750 0.562500
vt 0.468750 0.500000
vt 0.484375 1.000000
vt 0.468750 0.937500
vt 0.484375 0.000000
vt 0.468750 0.437500
vt 0.468750 0.875000
vt 0.468750 0.375000
vt 0.468750 0.812500
vt 0.468750 0.312500
vt 0.468750 0.750000
vt 0.468750 0.250000
vt 0.468750 0.687500
vt 0.468750 0.187500
vt 0.468750 0.625000
vt 0.437500 0.812500
vt 0.437500 0.750000
vt 0.437500 0.312500
vt 0.437500 0.250000
vt 0.437500 0.687500
vt 0.437500 0.187500
vt 0.437500 0.625000
vt 0.437500 0.125000
vt 0.437500 0.562500
vt 0.437500 0.062500
vt 0.437500 0.500000
vt 0.453125 1.000000
vt 0.437500 0.937500
vt 0.453125 0.000000
vt 0.437500 0.437500
vt 0.437500 0.875000
vt 0.437500 0.375000
vt 0.406250 0.562500
vt 0.406250 0.500000
vt 0.421875 1.000000
vt 0.406250 0.937500
vt 0.421875 0.000000
vt 0.406250 0.062500
vt 0.406250 0.437500
vt 0.406250 0.875000
vt 0.406250 0.375000
vt 0.406250 0.812500
vt 0.406250 0.312500
vt 0.406250 0.750000
vt 0.406250 0.250000
vt 0.406250 0.687500
vt 0.406250 0.187500
vt 0.406250 0.625000
vt 0.406250 0.125000
vt 0.375000 0.312500
vt 0.375000 0.250000
vt 0.375000 0.750000
vt 0.375000 0.687500
vt 0.375000 0.187500
vt 0.375000 0.625000
vt 0.375000 0.125000
vt 0.375000 0.562500
vt 0.375000 0.062500
vt 0.375000 0.500000
vt 0.390625 1.000000
vt 0.375000 0.937500
vt 0.390625 0.000000
vt 0.375000 0.437500
vt 0.375000 0.875000
vt 0.375000 0.375000
vt 0.375000 0.812500
vt 0.359375 0.000000
vt 0.343750 0.062500
vt 0.343750 0.500000
vt 0.343750 0.437500
vt 0.343750 0.937500
vt 0.343750 0.875000
vt 0.343750 0.375000
vt 0.343750 0.812500
vt 0.343750 0.312500
vt 0.343750 0.750000
vt 0.343750 0.250000
vt 0.343750 0.687500
vt 0.343750 0.187500
vt 0.343750 0.625000
vt 0.343750 0.125000
vt 0.343750 0.562500
vt 0.359375 1.000000
vt 0.312500 0.250000
vt 0.312500 0.187500
vt 0.312500 0.687500
vt 0.312500 0.625000
vt 0.312500 0.125000
vt 0.312500 0.562500
vt 0.312500 0.062500
vt 0.312500 0.500000
vt 0.328125 1.000000
vt 0.312500 0.937500
vt 0.328125 0.000000
vt 0.312500 0.437500
vt 0.312500 0.875000
vt 0.312500 0.375000
vt 0.312500 0.812500
vt 0.312500 0.312500
vt 0.312500 0.750000
vt 0.281250 0.937500
vt 0.281250 0.875000
vt 0.281250 0.437500
vt 0.281250 0.375000
vt 0.281250 0.812500
vt 0.281250 0.312500
vt 0.281250 0.750000
vt 0.281250 0.250000
vt 0.281250 0.687500
vt 0.281250 0.187500
vt 0.281250 0.625000
vt 0.281250 0.125000
vt 0.281250 0.562500
vt 0.281250 0.062500
vt 0.281250 0.500000
vt 0.296875 1.000000
vt 0.296875 0.000000
vt 0.250000 0.687500
vt 0.250000 0.625000
vt 0.250000 0.187500
vt 0.250000 0.125000
vt 0.250000 0.562500
vt 0.250000 0.062500
vt 0.250000 0.500000
vt 0.265625 1.000000
vt 0.250000 0.937500
vt 0.265625 0.000000
vt 0.250000 0.437500
vt 0.250000 0.875000
vt 0.250000 0.375000
vt 0.250000 0.812500
vt 0.250000 0.312500
vt 0.250000 0.750000
vt 0.250000 0.250000
vt 0.218750 0.437500
vt 0.218750 0.375000
vt 0.218750 0.875000
vt 0.218750 0.812500
vt 0.218750 0.312500
vt 0.218750 0.750000
vt 0.218750 0.250000
vt 0.218750 0.687500
vt 0.218750 0.187500
vt 0.218750 0.625000
vt 0.218750 0.125000
vt 0.218750 0.562500
vt 0.218750 0.062500
vt 0.218750 0.500000
vt 0.234375 1.000000
vt 0.218750 0.937500
vt 0.234375 0.000000
vt 0.187500 0.187500
vt 0.187500 0.125000
vt 0.187500 0.625000
vt 0.187500 0.562500
vt 0.187500 0.062500
vt 0.187500 0.500000
vt 0.203125 1.000000
vt 0.187500 0.937500
vt 0.203125 0.000000
vt 0.187500 0.437500
vt 0.187500 0.875000
vt 0.187500 0.375000
vt 0.187500 0.812500
vt 0.187500 0.312500
vt 0.187500 0.750000
vt 0.187500 0.250000
vt 0.187500 0.687500
vt 0.156250 0.875000
vt 0.156250 0.812500
vt 0.156250 0.375000
vt 0.156250 0.312500
vt 0.156250 0.750000
vt 0.156250 0.250000
vt 0.156250 0.687500
vt 0.156250 0.187500
vt 0.156250 0.625000
vt 0.156250 0.125000
vt 0.156250 0.562500
vt 0.156250 0.062500
vt 0.156250 0.500000
vt 0.171875 1.000000
vt 0.156250 0.937500
vt 0.171875 0.000000
vt 0.156250 0.437500
vt 0.125000 0.625000
vt 0.125000 0.562500
vt 0.125000 0.125000
vt 0.125000 0.062500
vt 0.125000 0.500000
vt 0.140625 1.000000
vt 0.125000 0.937500
vt 0.140625 0.000000
vt 0.125000 0.437500
vt 0.125000 0.875000
vt 0.125000 0.375000
vt 0.125000 0.812500
vt 0.125000 0.312500
vt 0.125000 0.750000
vt 0.125000 0.250000
vt 0.125000 0.687500
vt 0.125000 0.187500
vt 0.093750 0.375000
vt 0.093750 0.312500
vt 0.093750 0.812500
vt 0.093750 0.750000
vt 0.093750 0.250000
vt 0.093750 0.687500
vt 0.093750 0.187500
vt 0.093750 0.625000
vt 0.093750 0.125000
vt 0.093750 0.562500
vt 0.093750 0.062500
vt 0.093750 0.500000
vt 0.109375 1.000000
vt 0.093750 0.937500
vt 0.109375 0.000000
vt 0.093750 0.437500
vt 0.093750 0.875000
vt 0.062500 0.125000
vt 0.062500 0.062500
vt 0.062500 0.562500
vt 0.062500 0.500000
vt 0.078125 1.000000
vt 0.062500 0.937500
vt 0.078125 0.000000
vt 0.062500 0.437500
vt 0.062500 0.875000
vt 0.062500 0.375000
vt 0.062500 0.812500
vt 0.062500 0.312500
vt 0.062500 0.750000
vt 0.062500 0.250000
vt 0.062500 0.687500
vt 0.062500 0.187500
vt 0.062500 0.625000
vt 0.031250 0.312500
vt 0.031250 0.250000
vt 0.031250 0.750000
vt 0.031250 0.687500
vt 0.031250 0.187500
vt 0.031250 0.625000
vt 0.031250 0.125000
vt 0.031250 0.562500
vt 0.031250 0.062500
vt 0.031250 0.500000
vt 0.046875 1.000000
vt 0.031250 0.937500
vt 0.046875 0.000000
vt 0.031250 0.437500
vt 0.031250 0.875000
vt 0.031250 0.375000
vt 0.031250 0.812500
vt 0.015625 1.000000
vt 0.000000 0.937500
vt 0.015625 0.000000
vt 0.000000 0.062500
vt 0.000000 0.500000
vt 0.000000 0.437500
vt 0.000000 0.875000
vt 0.000000 0.375000
vt 0.000000 0.812500
vt 0.000000 0.312500
vt 0.000000 0.750000
vt 0.000000 0.250000
vt 0.000000 0.687500
vt 0.000000 0.187500
vt 0.000000 0.625000
vt 0.000000 0.125000
vt 0.000000 0.562500
vt 1.000000 0.687500
vt 1.000000 0.750000
vt 0.968750 0.750000
vt 0.968750 0.687500
vt 1.000000 0.187500
vt 1.000000 0.250000
vt 0.968750 0.250000
vt 0.968750 0.187500
vt 1.000000 0.625000
vt 0.968750 0.625000
vt 1.000000 0.125000
vt 0.968750 0.125000
vt 1.000000 0.562500
vt 0.968750 0.562500
vt 1.000000 0.062500
vt 0.968750 0.062500
vt 1.000000 0.500000
vt 0.968750 0.500000
vt 1.000000 0.937500
vt 0.984375 1.000000
vt 0.968750 0.937500
vt 0.984375 0.000000
vt 1.000000 0.437500
vt 0.968750 0.437500
vt 1.000000 0.875000
vt 0.968750 0.875000
vt 1.000000 0.375000
vt 0.968750 0.375000
vt 1.000000 0.812500
vt 0.968750 0.812500
vt 1.000000 0.312500
vt 0.968750 0.312500
vt 0.937500 0.500000
vt 0.937500 0.437500
vt 0.937500 0.937500
vt 0.937500 0.875000
vt 0.937500 0.375000
vt 0.937500 0.812500
vt 0.937500 0.312500
vt 0.937500 0.750000
vt 0.937500 0.250000
vt 0.937500 0.687500
vt 0.937500 0.187500
vt 0.937500 0.625000
vt 0.937500 0.125000
vt 0.937500 0.562500
vt 0.937500 0.062500
vt 0.953125 1.000000
vt 0.953125 0.000000
vt 0.906250 0.250000
vt 0.906250 0.187500
vt 0.906250 0.687500
vt 0.906250 0.625000
vt 0.906250 0.125000
vt 0.906250 0.562500
vt 0.906250 0.062500
vt 0.906250 0.500000
vt 0.921875 1.000000
vt 0.906250 0.937500
vt 0.921875 0.000000
vt 0.906250 0.437500
vt 0.906250 0.875000
vt 0.906250 0.375000
vt 0.906250 0.812500
vt 0.906250 0.312500
vt 0.906250 0.750000
vt 0.875000 0.937500
vt 0.875000 0.875000
vt 0.875000 0.437500
vt 0.875000 0.375000
vt 0.875000 0.812500
vt 0.875000 0.312500
vt 0.875000 0.750000
vt 0.875000 0.250000
vt 0.875000 0.687500
vt 0.875000 0.187500
vt 0.875000 0.625000
vt 0.875000 0.125000
vt 0.875000 0.562500
vt 0.875000 0.062500
vt 0.875000 0.500000
vt 0.890625 1.000000
vt 0.890625 0.000000
vt 0.843750 0.687500
vt 0.843750 0.625000
vt 0.843750 0.187500
vt 0.843750 0.125000
vt 0.843750 0.562500
vt 0.843750 0.062500
vt 0.843750 0.500000
vt 0.859375 1.000000
vt 0.843750 0.937500
vt 0.859375 0.000000
vt 0.843750 0.437500
vt 0.843750 0.875000
vt 0.843750 0.375000
vt 0.843750 0.812500
vt 0.843750 0.312500
vt 0.843750 0.750000
vt 0.843750 0.250000
vt 0.812500 0.437500
vt 0.812500 0.375000
vt 0.812500 0.875000
vt 0.812500 0.812500
vt 0.812500 0.312500
vt 0.812500 0.750000
vt 0.812500 0.250000
vt 0.812500 0.687500
vt 0.812500 0.187500
vt 0.812500 0.625000
vt 0.812500 0.125000
vt 0.812500 0.562500
vt 0.812500 0.062500
vt 0.812500 0.500000
vt 0.828125 1.000000
vt 0.812500 0.937500
vt 0.828125 0.000000
vt 0.781250 0.187500
vt 0.781250 0.125000
vt 0.781250 0.625000
vt 0.781250 0.562500
vt 0.781250 0.062500
vt 0.781250 0.500000
vt 0.796875 1.000000
vt 0.781250 0.937500
vt 0.796875 0.000000
vt 0.781250 0.437500
vt 0.781250 0.875000
vt 0.781250 0.375000
vt 0.781250 0.812500
vt 0.781250 0.312500
vt 0.781250 0.750000
vt 0.781250 0.250000
vt 0.781250 0.687500
vt 0.765625 1.000000
vt 0.765625 0.000000
vn 0.0464 0.8810 -0.4709
vn 0.1241 -0.4050 -0.9059
vn 0.0624 0.7715 -0.6332
vn 0.1826 -0.1905 -0.9645
vn 0.0759 0.6326 -0.7708
vn 0.1919 -0.3240 -0.9264
vn 0.0865 0.4696 -0.8786
vn 0.1058 -0.4902 -0.8652
vn 0.0938 0.2890 -0.9527
vn 0.0911 -0.4290 -0.8987
vn 0.0975 0.0975 -0.9904
vn 0.0097 0.9951 -0.0980
vn 0.1124 -0.9207 -0.3737
vn 0.0975 -0.0975 -0.9904
vn 0.0286 0.9565 -0.2902
vn 0.0961 -0.2870 -0.9531
vn 0.2889 -0.0975 -0.9524
vn 0.0846 0.9565 -0.2790
vn 0.2779 -0.2890 -0.9161
vn 0.1374 0.8810 -0.4528
vn 0.2695 -0.4356 -0.8588
vn 0.1847 0.7715 -0.6088
vn 0.3311 -0.2291 -0.9154
vn 0.2248 0.6326 -0.7412
vn 0.3453 -0.2867 -0.8936
vn 0.2563 0.4696 -0.8448
vn 0.2652 -0.4506 -0.8524
vn 0.2779 0.2890 -0.9161
vn 0.2537 -0.4394 -0.8617
vn 0.2889 0.0975 -0.9524
vn 0.0286 0.9951 -0.0942
vn 0.1681 -0.9184 -0.3581
vn 0.4796 -0.2661 -0.8362
vn 0.4162 0.4696 -0.7786
vn 0.4308 -0.4241 -0.7966
vn 0.4513 0.2890 -0.8443
vn 0.4335 -0.4507 -0.7804
vn 0.4691 0.0975 -0.8777
vn 0.0464 0.9951 -0.0869
vn 0.2283 -0.9160 -0.3299
vn 0.4691 -0.0975 -0.8777
vn 0.1374 0.9565 -0.2571
vn 0.4513 -0.2890 -0.8443
vn 0.2231 0.8810 -0.4173
vn 0.4196 -0.4387 -0.7947
vn 0.2999 0.7715 -0.5611
vn 0.4667 -0.2636 -0.8442
vn 0.3651 0.6326 -0.6831
vn 0.6073 -0.2890 -0.7400
vn 0.3002 0.8810 -0.3658
vn 0.5674 -0.4293 -0.7027
vn 0.4036 0.7715 -0.4918
vn 0.6042 -0.2814 -0.7455
vn 0.4913 0.6326 -0.5987
vn 0.6154 -0.2594 -0.7443
vn 0.5601 0.4696 -0.6825
vn 0.5860 -0.4184 -0.6939
vn 0.6073 0.2890 -0.7400
vn 0.6001 -0.4585 -0.6555
vn 0.6314 0.0975 -0.7693
vn 0.0625 0.9951 -0.0761
vn 0.2985 -0.9120 -0.2813
vn 0.6314 -0.0975 -0.7693
vn 0.1850 0.9565 -0.2254
vn 0.7148 -0.4307 -0.5510
vn 0.7400 0.2890 -0.6073
vn 0.7350 -0.4616 -0.4966
vn 0.7693 0.0975 -0.6314
vn 0.0761 0.9951 -0.0625
vn 0.3640 -0.9059 -0.2166
vn 0.7693 -0.0975 -0.6314
vn 0.2254 0.9565 -0.1850
vn 0.7400 -0.2890 -0.6073
vn 0.3658 0.8810 -0.3002
vn 0.6991 -0.4208 -0.5781
vn 0.4918 0.7715 -0.4036
vn 0.7351 -0.2840 -0.6156
vn 0.5987 0.6326 -0.4913
vn 0.7424 -0.2607 -0.6172
vn 0.6825 0.4696 -0.5601
vn 0.4173 0.8810 -0.2231
vn 0.8015 -0.4201 -0.4256
vn 0.5611 0.7715 -0.2999
vn 0.8457 -0.2768 -0.4562
vn 0.6831 0.6326 -0.3651
vn 0.8482 -0.2656 -0.4582
vn 0.7786 0.4696 -0.4162
vn 0.8046 -0.4562 -0.3800
vn 0.8443 0.2890 -0.4513
vn 0.8285 -0.4601 -0.3192
vn 0.8777 0.0975 -0.4691
vn 0.0869 0.9951 -0.0464
vn 0.4180 -0.8976 -0.1397
vn 0.8777 -0.0975 -0.4691
vn 0.2571 0.9565 -0.1374
vn 0.8443 -0.2890 -0.4513
vn 0.9161 0.2890 -0.2779
vn 0.8798 -0.4553 -0.1368
vn 0.9524 0.0975 -0.2889
vn 0.0942 0.9951 -0.0286
vn 0.4558 -0.8883 -0.0573
vn 0.9524 -0.0975 -0.2889
vn 0.2790 0.9565 -0.0846
vn 0.9161 -0.2890 -0.2779
vn 0.4528 0.8810 -0.1374
vn 0.8670 -0.4272 -0.2565
vn 0.6088 0.7715 -0.1847
vn 0.9237 -0.2680 -0.2739
vn 0.7412 0.6326 -0.2248
vn 0.9231 -0.2706 -0.2732
vn 0.8448 0.4696 -0.2563
vn 0.8499 -0.4890 -0.1966
vn 0.8955 -0.4376 -0.0814
vn 0.6332 0.7715 -0.0624
vn 0.9609 -0.2644 -0.0820
vn 0.7708 0.6326 -0.0759
vn 0.9587 -0.2739 -0.0772
vn 0.8786 0.4696 -0.0865
vn 0.8531 -0.5213 -0.0231
vn 0.9527 0.2890 -0.0938
vn 0.8922 -0.4504 0.0316
vn 0.9904 0.0975 -0.0975
vn 0.0980 0.9951 -0.0097
vn 0.4757 -0.8793 0.0233
vn 0.9904 -0.0975 -0.0975
vn 0.2902 0.9565 -0.0286
vn 0.9527 -0.2890 -0.0938
vn 0.4709 0.8810 -0.0464
vn 0.8752 -0.4473 0.1844
vn 0.9904 0.0975 0.0976
vn 0.0980 0.9951 0.0097
vn 0.4795 -0.8722 0.0965
vn 0.9904 -0.0975 0.0976
vn 0.2902 0.9565 0.0286
vn 0.9527 -0.2890 0.0938
vn 0.4709 0.8810 0.0464
vn 0.8904 -0.4459 0.0913
vn 0.6332 0.7715 0.0624
vn 0.9562 -0.2707 0.1112
vn 0.7708 0.6326 0.0759
vn 0.9541 -0.2739 0.1214
vn 0.8786 0.4696 0.0865
vn 0.8267 -0.5463 0.1345
vn 0.9527 0.2890 0.0938
vn 0.6088 0.7715 0.1847
vn 0.9116 -0.2868 0.2945
vn 0.7412 0.6326 0.2248
vn 0.9121 -0.2700 0.3086
vn 0.8448 0.4696 0.2563
vn 0.7838 -0.5582 0.2721
vn 0.9161 0.2890 0.2779
vn 0.8379 -0.4473 0.3127
vn 0.9524 0.0975 0.2889
vn 0.0942 0.9951 0.0286
vn 0.4702 -0.8679 0.1602
vn 0.9524 -0.0975 0.2889
vn 0.2790 0.9565 0.0846
vn 0.9161 -0.2890 0.2779
vn 0.4528 0.8810 0.1374
vn 0.8550 -0.4490 0.2596
vn 0.8777 0.0975 0.4691
vn 0.0869 0.9951 0.0464
vn 0.4488 -0.8664 0.2188
vn 0.8777 -0.0975 0.4691
vn 0.2571 0.9565 0.1374
vn 0.8446 -0.2886 0.4510
vn 0.4173 0.8810 0.2230
vn 0.7929 -0.4446 0.4168
vn 0.5611 0.7715 0.2999
vn 0.8341 -0.3090 0.4570
vn 0.6831 0.6326 0.3651
vn 0.8424 -0.2614 0.4713
vn 0.7786 0.4696 0.4162
vn 0.7404 -0.5525 0.3828
vn 0.8443 0.2890 0.4513
vn 0.7887 -0.4531 0.4154
vn 0.7373 -0.3281 0.5905
vn 0.5987 0.6326 0.4913
vn 0.7609 -0.2463 0.6003
vn 0.6825 0.4696 0.5601
vn 0.6954 -0.5335 0.4815
vn 0.7400 0.2890 0.6073
vn 0.7279 -0.4664 0.5025
vn 0.7693 0.0975 0.6314
vn 0.0761 0.9951 0.0625
vn 0.4177 -0.8683 0.2676
vn 0.7693 -0.0975 0.6314
vn 0.2254 0.9565 0.1850
vn 0.7445 -0.2835 0.6045
vn 0.3658 0.8810 0.3002
vn 0.7074 -0.4333 0.5584
vn 0.4918 0.7715 0.4036
vn 0.3772 -0.8736 0.3074
vn 0.6324 -0.0963 0.7686
vn 0.1850 0.9565 0.2254
vn 0.6194 -0.2698 0.7373
vn 0.3002 0.8810 0.3658
vn 0.6054 -0.4123 0.6808
vn 0.4036 0.7715 0.4918
vn 0.6390 -0.3313 0.6942
vn 0.4913 0.6326 0.5987
vn 0.6737 -0.2274 0.7031
vn 0.5601 0.4696 0.6825
vn 0.6401 -0.5105 0.5742
vn 0.6073 0.2890 0.7400
vn 0.6536 -0.4881 0.5785
vn 0.6314 0.0975 0.7693
vn 0.0625 0.9951 0.0761
vn 0.5634 -0.2132 0.7982
vn 0.4162 0.4696 0.7786
vn 0.5491 -0.4900 0.6771
vn 0.4513 0.2890 0.8443
vn 0.5553 -0.5179 0.6507
vn 0.4691 0.0975 0.8777
vn 0.0464 0.9951 0.0869
vn 0.3228 -0.8830 0.3406
vn 0.4729 -0.0909 0.8764
vn 0.1374 0.9565 0.2571
vn 0.4761 -0.2470 0.8440
vn 0.2230 0.8810 0.4173
vn 0.4898 -0.3744 0.7874
vn 0.2999 0.7715 0.5611
vn 0.5356 -0.3118 0.7848
vn 0.3651 0.6326 0.6831
vn 0.0846 0.9565 0.2790
vn 0.3106 -0.2120 0.9266
vn 0.1374 0.8810 0.4528
vn 0.3514 -0.3204 0.8797
vn 0.1847 0.7715 0.6088
vn 0.4076 -0.2716 0.8718
vn 0.2248 0.6326 0.7412
vn 0.3907 -0.2228 0.8931
vn 0.2563 0.4696 0.8448
vn 0.3758 -0.4685 0.7995
vn 0.2779 0.2890 0.9161
vn 0.4147 -0.5522 0.7233
vn 0.2889 0.0975 0.9524
vn 0.0286 0.9951 0.0942
vn 0.2572 -0.8957 0.3626
vn 0.2932 -0.0824 0.9525
vn 0.0865 0.4696 0.8786
vn 0.1497 -0.4422 0.8843
vn 0.0938 0.2890 0.9527
vn 0.2342 -0.5790 0.7810
vn 0.0975 0.0975 0.9904
vn 0.0097 0.9951 0.0980
vn 0.1855 -0.9101 0.3706
vn 0.1029 -0.0728 0.9920
vn 0.0286 0.9565 0.2902
vn 0.1262 -0.1713 0.9771
vn 0.0464 0.8810 0.4709
vn 0.1684 -0.2627 0.9501
vn 0.0624 0.7715 0.6332
vn 0.1921 -0.2381 0.9520
vn 0.0759 0.6326 0.7708
vn 0.1490 -0.2516 0.9563
vn -0.0903 -0.1478 0.9849
vn -0.0464 0.8810 0.4709
vn -0.0759 -0.2226 0.9719
vn -0.0624 0.7715 0.6332
vn -0.0834 -0.2321 0.9691
vn -0.0759 0.6326 0.7708
vn -0.1295 -0.2739 0.9530
vn -0.0865 0.4696 0.8786
vn -0.1102 -0.4143 0.9034
vn -0.0938 0.2890 0.9527
vn 0.0299 -0.5865 0.8094
vn -0.0975 0.0975 0.9904
vn -0.0097 0.9951 0.0980
vn 0.1129 -0.9244 0.3643
vn -0.0954 -0.0651 0.9933
vn -0.0286 0.9565 0.2902
vn -0.3470 -0.3860 0.8548
vn -0.2779 0.2890 0.9161
vn -0.1791 -0.5723 0.8003
vn -0.2889 0.0975 0.9524
vn -0.0286 0.9951 0.0942
vn 0.0389 -0.9382 0.3439
vn -0.2971 -0.0711 0.9522
vn -0.0846 0.9565 0.2790
vn -0.3154 -0.1576 0.9358
vn -0.1374 0.8810 0.4528
vn -0.3349 -0.2135 0.9177
vn -0.1847 0.7715 0.6088
vn -0.3679 -0.2440 0.8973
vn -0.2248 0.6326 0.7412
vn -0.3939 -0.2731 0.8777
vn -0.2563 0.4696 0.8448
vn -0.2231 0.8810 0.4173
vn -0.5338 -0.2291 0.8140
vn -0.2999 0.7715 0.5611
vn -0.5550 -0.2577 0.7909
vn -0.3651 0.6326 0.6831
vn -0.5806 -0.2691 0.7684
vn -0.4162 0.4696 0.7786
vn -0.5510 -0.3540 0.7557
vn -0.4513 0.2890 0.8443
vn -0.3762 -0.5429 0.7508
vn -0.4691 0.0975 0.8777
vn -0.0464 0.9951 0.0869
vn -0.0325 -0.9502 0.3100
vn -0.4863 -0.0992 0.8681
vn -0.1374 0.9565 0.2571
vn -0.5106 -0.1855 0.8396
vn -0.6073 0.2890 0.7400
vn -0.5372 -0.5116 0.6706
vn -0.6319 0.0970 0.7690
vn -0.0625 0.9951 0.0761
vn -0.1002 -0.9598 0.2622
vn -0.6424 -0.1365 0.7541
vn -0.1850 0.9565 0.2254
vn -0.6590 -0.2166 0.7203
vn -0.3002 0.8810 0.3658
vn -0.6778 -0.2505 0.6913
vn -0.4036 0.7715 0.4918
vn -0.6949 -0.2646 0.6686
vn -0.4913 0.6326 0.5987
vn -0.7078 -0.2736 0.6513
vn -0.5601 0.4696 0.6825
vn -0.6797 -0.3222 0.6589
vn -0.7779 -0.2681 0.5683
vn -0.4918 0.7715 0.4036
vn -0.7865 -0.2712 0.5548
vn -0.5987 0.6326 0.4913
vn -0.7881 -0.2730 0.5517
vn -0.6825 0.4696 0.5601
vn -0.7797 -0.3058 0.5465
vn -0.7400 0.2890 0.6073
vn -0.6890 -0.4840 0.5395
vn -0.7697 0.0960 0.6312
vn -0.0761 0.9951 0.0625
vn -0.1568 -0.9660 0.2057
vn -0.7694 -0.1652 0.6170
vn -0.2254 0.9565 0.1850
vn -0.7699 -0.2439 0.5897
vn -0.3658 0.8810 0.3002
vn -0.7821 -0.4692 0.4102
vn -0.8775 0.0963 0.4698
vn -0.0869 0.9951 0.0464
vn -0.2062 -0.9691 0.1351
vn -0.8659 -0.1732 0.4693
vn -0.2571 0.9565 0.1374
vn -0.8512 -0.2668 0.4520
vn -0.4173 0.8810 0.2231
vn -0.8550 -0.2791 0.4371
vn -0.5611 0.7715 0.2999
vn -0.8576 -0.2754 0.4344
vn -0.6831 0.6326 0.3651
vn -0.8599 -0.2734 0.4310
vn -0.7786 0.4696 0.4162
vn -0.8494 -0.3012 0.4334
vn -0.8443 0.2890 0.4513
vn -0.9117 -0.2780 0.3027
vn -0.7412 0.6326 0.2248
vn -0.9093 -0.2762 0.3111
vn -0.8448 0.4696 0.2563
vn -0.9052 -0.3057 0.2953
vn -0.9161 0.2890 0.2779
vn -0.8538 -0.4674 0.2290
vn -0.9523 0.0972 0.2892
vn -0.0942 0.9951 0.0286
vn -0.2424 -0.9686 0.0554
vn -0.9404 -0.1557 0.3022
vn -0.2790 0.9565 0.0846
vn -0.9100 -0.2893 0.2971
vn -0.4528 0.8810 0.1374
vn -0.9133 -0.2828 0.2931
vn -0.6088 0.7715 0.1847
vn -0.0980 0.9951 0.0097
vn -0.2603 -0.9653 -0.0192
vn -0.9856 -0.1245 0.1143
vn -0.2902 0.9565 0.0286
vn -0.9449 -0.3020 0.1266
vn -0.4709 0.8810 0.0464
vn -0.9491 -0.2869 0.1304
vn -0.6332 0.7715 0.0624
vn -0.9499 -0.2781 0.1427
vn -0.7708 0.6326 0.0759
vn -0.9469 -0.2803 0.1576
vn -0.8786 0.4696 0.0865
vn -0.9358 -0.3211 0.1456
vn -0.9527 0.2890 0.0938
vn -0.8771 -0.4765 0.0603
vn -0.9904 0.0975 0.0975
vn -0.7708 0.6326 -0.0759
vn -0.9580 -0.2863 -0.0180
vn -0.8786 0.4696 -0.0865
vn -0.9410 -0.3372 -0.0272
vn -0.9527 0.2890 -0.0938
vn -0.8625 -0.4921 -0.1180
vn -0.9904 0.0975 -0.0976
vn -0.0980 0.9951 -0.0097
vn -0.2628 -0.9601 -0.0960
vn -0.9904 -0.1026 -0.0924
vn -0.2902 0.9565 -0.0286
vn -0.9530 -0.2946 -0.0713
vn -0.4709 0.8810 -0.0464
vn -0.9516 -0.3005 -0.0644
vn -0.6332 0.7715 -0.0624
vn -0.9612 -0.2719 -0.0460
vn -0.9524 -0.0976 -0.2889
vn -0.2790 0.9565 -0.0846
vn -0.9219 -0.2768 -0.2710
vn -0.4528 0.8810 -0.1374
vn -0.9049 -0.3250 -0.2749
vn -0.6088 0.7715 -0.1847
vn -0.9322 -0.2555 -0.2564
vn -0.7412 0.6326 -0.2248
vn -0.9317 -0.2915 -0.2167
vn -0.8448 0.4696 -0.2563
vn -0.9063 -0.3578 -0.2248
vn -0.9161 0.2890 -0.2779
vn -0.8114 -0.5031 -0.2973
vn -0.9524 0.0975 -0.2889
vn -0.0942 0.9951 -0.0286
vn -0.2497 -0.9539 -0.1667
vn -0.8611 -0.2954 -0.4139
vn -0.7786 0.4696 -0.4162
vn -0.8133 -0.3886 -0.4332
vn -0.8443 0.2890 -0.4513
vn -0.7221 -0.4988 -0.4794
vn -0.8777 0.0975 -0.4691
vn -0.0869 0.9951 -0.0464
vn -0.2239 -0.9479 -0.2265
vn -0.8777 -0.0975 -0.4691
vn -0.2571 0.9565 -0.1374
vn -0.8479 -0.2713 -0.4555
vn -0.4173 0.8810 -0.2231
vn -0.8210 -0.3470 -0.4533
vn -0.5611 0.7715 -0.2999
vn -0.8639 -0.2321 -0.4471
vn -0.6831 0.6326 -0.3651
vn -0.2254 0.9565 -0.1850
vn -0.7591 -0.2564 -0.5984
vn -0.3658 0.8810 -0.3002
vn -0.7621 -0.3394 -0.5514
vn -0.4918 0.7715 -0.4036
vn -0.8000 -0.2165 -0.5595
vn -0.5987 0.6326 -0.4913
vn -0.7624 -0.3183 -0.5635
vn -0.6825 0.4696 -0.5601
vn -0.6596 -0.4339 -0.6137
vn -0.7400 0.2890 -0.6073
vn -0.5957 -0.4770 -0.6462
vn -0.7693 0.0975 -0.6314
vn -0.0761 0.9951 -0.0625
vn -0.1836 -0.9419 -0.2814
vn -0.7696 -0.0972 -0.6311
vn -0.5601 0.4696 -0.6825
vn -0.4955 -0.4837 -0.7215
vn -0.6073 0.2890 -0.7400
vn -0.4648 -0.4515 -0.7617
vn -0.6314 0.0975 -0.7693
vn -0.0625 0.9951 -0.0761
vn -0.1313 -0.9359 -0.3268
vn -0.6352 -0.0923 -0.7668
vn -0.1850 0.9565 -0.2254
vn -0.6382 -0.2235 -0.7367
vn -0.3002 0.8810 -0.3658
vn -0.6580 -0.3037 -0.6891
vn -0.4036 0.7715 -0.4918
vn -0.6953 -0.2100 -0.6874
vn -0.4913 0.6326 -0.5987
vn -0.6327 -0.3765 -0.6767
vn -0.4571 -0.2131 -0.8635
vn -0.2230 0.8810 -0.4173
vn -0.4523 -0.2752 -0.8484
vn -0.2999 0.7715 -0.5611
vn -0.4808 -0.1975 -0.8543
vn -0.3651 0.6326 -0.6831
vn -0.4438 -0.4286 -0.7870
vn -0.4162 0.4696 -0.7786
vn -0.3519 -0.5227 -0.7765
vn -0.4513 0.2890 -0.8443
vn -0.3390 -0.4330 -0.8352
vn -0.4691 0.0975 -0.8777
vn -0.0464 0.9951 -0.0869
vn -0.0745 -0.9309 -0.3575
vn -0.4702 -0.0869 -0.8783
vn -0.1374 0.9565 -0.2571
vn -0.2127 -0.5384 -0.8154
vn -0.2779 0.2890 -0.9161
vn -0.2106 -0.4248 -0.8804
vn -0.2889 0.0975 -0.9524
vn -0.0286 0.9951 -0.0942
vn -0.0179 -0.9271 -0.3743
vn -0.2846 -0.0910 -0.9543
vn -0.0846 0.9565 -0.2790
vn -0.2544 -0.2361 -0.9378
vn -0.1374 0.8810 -0.4528
vn -0.2037 -0.2893 -0.9353
vn -0.1847 0.7715 -0.6088
vn -0.2048 -0.1778 -0.9625
vn -0.2248 0.6326 -0.7412
vn -0.2148 -0.4248 -0.8794
vn -0.2563 0.4696 -0.8448
vn -0.0107 -0.3456 -0.9383
vn -0.0624 0.7715 -0.6332
vn 0.0234 -0.1704 -0.9851
vn -0.0759 0.6326 -0.7708
vn 0.0117 -0.3759 -0.9266
vn -0.0865 0.4696 -0.8786
vn -0.0537 -0.5248 -0.8495
vn -0.0938 0.2890 -0.9527
vn -0.0629 -0.4238 -0.9036
vn -0.0976 0.0975 -0.9904
vn -0.0097 0.9951 -0.0980
vn 0.0479 -0.9237 -0.3801
vn -0.0966 -0.0966 -0.9906
vn -0.0286 0.9565 -0.2902
vn -0.0758 -0.2695 -0.9600
vn -0.0464 0.8810 -0.4709
usemtl None
s off
f 1/1/1 475/2/1 8/3/1 9/4/1
f 6/5/2 478/6/2 16/7/2 17/8/2
f 476/9/3 1/1/3 9/4/3 10/10/3
f 479/11/4 6/5/4 17/8/4 18/12/4
f 2/13/5 476/9/5 10/10/5 11/14/5
f 480/15/6 479/11/6 18/12/6 19/16/6
f 477/17/7 2/13/7 11/14/7 12/18/7
f 481/19/8 480/15/8 19/16/8 20/20/8
f 3/21/9 477/17/9 12/18/9 13/22/9
f 482/23/10 481/19/10 20/20/10 21/24/10
f 4/25/11 3/21/11 13/22/11 14/26/11
f 474/27/12 82/28/12 7/29/12
f 308/30/13 482/23/13 21/24/13
f 5/31/14 4/25/14 14/26/14 15/32/14
f 475/2/15 474/27/15 7/29/15 8/3/15
f 478/6/16 5/31/16 15/32/16 16/7/16
f 15/32/17 14/26/17 29/33/17 30/34/17
f 8/3/18 7/29/18 22/35/18 23/36/18
f 16/7/19 15/32/19 30/34/19 31/37/19
f 9/4/20 8/3/20 23/36/20 24/38/20
f 17/8/21 16/7/21 31/37/21 32/39/21
f 10/10/22 9/4/22 24/38/22 25/40/22
f 18/12/23 17/8/23 32/39/23 33/41/23
f 11/14/24 10/10/24 25/40/24 26/42/24
f 19/16/25 18/12/25 33/41/25 34/43/25
f 12/18/26 11/14/26 26/42/26 27/44/26
f 20/20/27 19/16/27 34/43/27 35/45/27
f 13/22/28 12/18/28 27/44/28 28/46/28
f 21/24/29 20/20/29 35/45/29 36/47/29
f 14/26/30 13/22/30 28/46/30 29/33/30
f 7/29/31 82/48/31 22/35/31
f 308/49/32 21/24/32 36/47/32
f 34/43/33 33/41/33 48/50/33 49/51/33
f 27/44/34 26/42/34 41/52/34 42/53/34
f 35/45/35 34/43/35 49/51/35 50/54/35
f 28/46/36 27/44/36 42/53/36 43/55/36
f 36/47/37 35/45/37 50/54/37 51/56/37
f 29/33/38 28/46/38 43/55/38 44/57/38
f 22/35/39 82/58/39 37/59/39
f 308/60/40 36/47/40 51/56/40
f 30/34/41 29/33/41 44/57/41 45/61/41
f 23/36/42 22/35/42 37/59/42 38/62/42
f 31/37/43 30/34/43 45/61/43 46/63/43
f 24/38/44 23/36/44 38/62/44 39/64/44
f 32/39/45 31/37/45 46/63/45 47/65/45
f 25/40/46 24/38/46 39/64/46 40/66/46
f 33/41/47 32/39/47 47/65/47 48/50/47
f 26/42/48 25/40/48 40/66/48 41/52/48
f 46/63/49 45/61/49 60/67/49 61/68/49
f 39/64/50 38/62/50 53/69/50 54/70/50
f 47/65/51 46/63/51 61/68/51 62/71/51
f 40/66/52 39/64/52 54/70/52 55/72/52
f 48/50/53 47/65/53 62/71/53 63/73/53
f 41/52/54 40/66/54 55/72/54 56/74/54
f 49/51/55 48/50/55 63/73/55 64/75/55
f 42/53/56 41/52/56 56/74/56 57/76/56
f 50/54/57 49/51/57 64/75/57 65/77/57
f 43/55/58 42/53/58 57/76/58 58/78/58
f 51/56/59 50/54/59 65/77/59 66/79/59
f 44/57/60 43/55/60 58/78/60 59/80/60
f 37/59/61 82/81/61 52/82/61
f 308/83/62 51/56/62 66/79/62
f 45/61/63 44/57/63 59/80/63 60/67/63
f 38/62/64 37/59/64 52/82/64 53/69/64
f 65/77/65 64/75/65 79/84/65 80/85/65
f 58/78/66 57/76/66 72/86/66 73/87/66
f 66/79/67 65/77/67 80/85/67 81/88/67
f 59/80/68 58/78/68 73/87/68 74/89/68
f 52/82/69 82/90/69 67/91/69
f 308/92/70 66/79/70 81/88/70
f 60/67/71 59/80/71 74/89/71 75/93/71
f 53/69/72 52/82/72 67/91/72 68/94/72
f 61/68/73 60/67/73 75/93/73 76/95/73
f 54/70/74 53/69/74 68/94/74 69/96/74
f 62/71/75 61/68/75 76/95/75 77/97/75
f 55/72/76 54/70/76 69/96/76 70/98/76
f 63/73/77 62/71/77 77/97/77 78/99/77
f 56/74/78 55/72/78 70/98/78 71/100/78
f 64/75/79 63/73/79 78/99/79 79/84/79
f 57/76/80 56/74/80 71/100/80 72/86/80
f 69/96/81 68/94/81 84/101/81 85/102/81
f 77/97/82 76/95/82 92/103/82 93/104/82
f 70/98/83 69/96/83 85/102/83 86/105/83
f 78/99/84 77/97/84 93/104/84 94/106/84
f 71/100/85 70/98/85 86/105/85 87/107/85
f 79/84/86 78/99/86 94/106/86 95/108/86
f 72/86/87 71/100/87 87/107/87 88/109/87
f 80/85/88 79/84/88 95/108/88 96/110/88
f 73/87/89 72/86/89 88/109/89 89/111/89
f 81/88/90 80/85/90 96/110/90 97/112/90
f 74/89/91 73/87/91 89/111/91 90/113/91
f 67/91/92 82/114/92 83/115/92
f 308/116/93 81/88/93 97/112/93
f 75/93/94 74/89/94 90/113/94 91/117/94
f 68/94/95 67/91/95 83/115/95 84/101/95
f 76/95/96 75/93/96 91/117/96 92/103/96
f 89/111/97 88/109/97 103/118/97 104/119/97
f 97/112/98 96/110/98 111/120/98 112/121/98
f 90/113/99 89/111/99 104/119/99 105/122/99
f 83/115/100 82/123/100 98/124/100
f 308/125/101 97/112/101 112/121/101
f 91/117/102 90/113/102 105/122/102 106/126/102
f 84/101/103 83/115/103 98/124/103 99/127/103
f 92/103/104 91/117/104 106/126/104 107/128/104
f 85/102/105 84/101/105 99/127/105 100/129/105
f 93/104/106 92/103/106 107/128/106 108/130/106
f 86/105/107 85/102/107 100/129/107 101/131/107
f 94/106/108 93/104/108 108/130/108 109/132/108
f 87/107/109 86/105/109 101/131/109 102/133/109
f 95/108/110 94/106/110 109/132/110 110/134/110
f 88/109/111 87/107/111 102/133/111 103/118/111
f 96/110/112 95/108/112 110/134/112 111/120/112
f 108/130/113 107/128/113 122/135/113 123/136/113
f 101/131/114 100/129/114 115/137/114 116/138/114
f 109/132/115 108/130/115 123/136/115 124/139/115
f 102/133/116 101/131/116 116/138/116 117/140/116
f 110/134/117 109/132/117 124/139/117 125/141/117
f 103/118/118 102/133/118 117/140/118 118/142/118
f 111/120/119 110/134/119 125/141/119 126/143/119
f 104/119/120 103/118/120 118/142/120 119/144/120
f 112/121/121 111/120/121 126/143/121 127/145/121
f 105/122/122 104/119/122 119/144/122 120/146/122
f 98/124/123 82/147/123 113/148/123
f 308/149/124 112/121/124 127/145/124
f 106/126/125 105/122/125 120/146/125 121/150/125
f 99/127/126 98/124/126 113/148/126 114/151/126
f 107/128/127 106/126/127 121/150/127 122/135/127
f 100/129/128 99/127/128 114/151/128 115/137/128
f 127/145/129 126/143/129 141/152/129 142/153/129
f 120/146/130 119/144/130 134/154/130 135/155/130
f 113/148/131 82/156/131 128/157/131
f 308/158/132 127/145/132 142/153/132
f 121/150/133 120/146/133 135/155/133 136/159/133
f 114/151/134 113/148/134 128/157/134 129/160/134
f 122/135/135 121/150/135 136/159/135 137/161/135
f 115/137/136 114/151/136 129/160/136 130/162/136
f 123/136/137 122/135/137 137/161/137 138/163/137
f 116/138/138 115/137/138 130/162/138 131/164/138
f 124/139/139 123/136/139 138/163/139 139/165/139
f 117/140/140 116/138/140 131/164/140 132/166/140
f 125/141/141 124/139/141 139/165/141 140/167/141
f 118/142/142 117/140/142 132/166/142 133/168/142
f 126/143/143 125/141/143 140/167/143 141/152/143
f 119/144/144 118/142/144 133/168/144 134/154/144
f 131/164/145 130/162/145 145/169/145 146/170/145
f 139/165/146 138/163/146 153/171/146 154/172/146
f 132/166/147 131/164/147 146/170/147 147/173/147
f 140/167/148 139/165/148 154/172/148 155/174/148
f 133/168/149 132/166/149 147/173/149 148/175/149
f 141/152/150 140/167/150 155/174/150 156/176/150
f 134/154/151 133/168/151 148/175/151 149/177/151
f 142/153/152 141/152/152 156/176/152 157/178/152
f 135/155/153 134/154/153 149/177/153 150/179/153
f 128/157/154 82/180/154 143/181/154
f 308/182/155 142/153/155 157/178/155
f 136/159/156 135/155/156 150/179/156 151/183/156
f 129/160/157 128/157/157 143/181/157 144/184/157
f 137/161/158 136/159/158 151/183/158 152/185/158
f 130/162/159 129/160/159 144/184/159 145/169/159
f 138/163/160 137/161/160 152/185/160 153/171/160
f 150/179/161 149/177/161 164/186/161 165/187/161
f 143/181/162 82/188/162 158/189/162
f 308/190/163 157/178/163 172/191/163
f 151/183/164 150/179/164 165/187/164 166/192/164
f 144/184/165 143/181/165 158/189/165 159/193/165
f 152/185/166 151/183/166 166/192/166 167/194/166
f 145/169/167 144/184/167 159/193/167 160/195/167
f 153/171/168 152/185/168 167/194/168 168/196/168
f 146/170/169 145/169/169 160/195/169 161/197/169
f 154/172/170 153/171/170 168/196/170 169/198/170
f 147/173/171 146/170/171 161/197/171 162/199/171
f 155/174/172 154/172/172 169/198/172 170/200/172
f 148/175/173 147/173/173 162/199/173 163/201/173
f 156/176/174 155/174/174 170/200/174 171/202/174
f 149/177/175 148/175/175 163/201/175 164/186/175
f 157/178/176 156/176/176 171/202/176 172/191/176
f 169/198/177 168/196/177 183/203/177 184/204/177
f 162/199/178 161/197/178 176/205/178 177/206/178
f 170/200/179 169/198/179 184/204/179 185/207/179
f 163/201/180 162/199/180 177/206/180 178/208/180
f 171/202/181 170/200/181 185/207/181 186/209/181
f 164/186/182 163/201/182 178/208/182 179/210/182
f 172/191/183 171/202/183 186/209/183 187/211/183
f 165/187/184 164/186/184 179/210/184 180/212/184
f 158/189/185 82/213/185 173/214/185
f 308/215/186 172/191/186 187/211/186
f 166/192/187 165/187/187 180/212/187 181/216/187
f 159/193/188 158/189/188 173/214/188 174/217/188
f 167/194/189 166/192/189 181/216/189 182/218/189
f 160/195/190 159/193/190 174/217/190 175/219/190
f 168/196/191 167/194/191 182/218/191 183/203/191
f 161/197/192 160/195/192 175/219/192 176/205/192
f 308/220/193 187/211/193 202/221/193
f 181/216/194 180/212/194 195/222/194 196/223/194
f 174/217/195 173/214/195 188/224/195 189/225/195
f 182/218/196 181/216/196 196/223/196 197/226/196
f 175/219/197 174/217/197 189/225/197 190/227/197
f 183/203/198 182/218/198 197/226/198 198/228/198
f 176/205/199 175/219/199 190/227/199 191/229/199
f 184/204/200 183/203/200 198/228/200 199/230/200
f 177/206/201 176/205/201 191/229/201 192/231/201
f 185/207/202 184/204/202 199/230/202 200/232/202
f 178/208/203 177/206/203 192/231/203 193/233/203
f 186/209/204 185/207/204 200/232/204 201/234/204
f 179/210/205 178/208/205 193/233/205 194/235/205
f 187/211/206 186/209/206 201/234/206 202/221/206
f 180/212/207 179/210/207 194/235/207 195/222/207
f 173/214/208 82/236/208 188/224/208
f 200/232/209 199/230/209 214/237/209 215/238/209
f 193/233/210 192/231/210 207/239/210 208/240/210
f 201/234/211 200/232/211 215/238/211 216/241/211
f 194/235/212 193/233/212 208/240/212 209/242/212
f 202/221/213 201/234/213 216/241/213 217/243/213
f 195/222/214 194/235/214 209/242/214 210/244/214
f 188/224/215 82/245/215 203/246/215
f 308/247/216 202/221/216 217/243/216
f 196/223/217 195/222/217 210/244/217 211/248/217
f 189/225/218 188/224/218 203/246/218 204/249/218
f 197/226/219 196/223/219 211/248/219 212/250/219
f 190/227/220 189/225/220 204/249/220 205/251/220
f 198/228/221 197/226/221 212/250/221 213/252/221
f 191/229/222 190/227/222 205/251/222 206/253/222
f 199/230/223 198/228/223 213/252/223 214/237/223
f 192/231/224 191/229/224 206/253/224 207/239/224
f 204/249/225 203/246/225 218/254/225 219/255/225
f 212/250/226 211/248/226 226/256/226 227/257/226
f 205/251/227 204/249/227 219/255/227 220/258/227
f 213/252/228 212/250/228 227/257/228 228/259/228
f 206/253/229 205/251/229 220/258/229 221/260/229
f 214/237/230 213/252/230 228/259/230 229/261/230
f 207/239/231 206/253/231 221/260/231 222/262/231
f 215/238/232 214/237/232 229/261/232 230/263/232
f 208/240/233 207/239/233 222/262/233 223/264/233
f 216/241/234 215/238/234 230/263/234 231/265/234
f 209/242/235 208/240/235 223/264/235 224/266/235
f 217/243/236 216/241/236 231/265/236 232/267/236
f 210/244/237 209/242/237 224/266/237 225/268/237
f 203/246/238 82/269/238 218/254/238
f 308/270/239 217/243/239 232/267/239
f 211/248/240 210/244/240 225/268/240 226/256/240
f 223/264/241 222/262/241 237/271/241 238/272/241
f 231/265/242 230/263/242 245/273/242 246/274/242
f 224/266/243 223/264/243 238/272/243 239/275/243
f 232/267/244 231/265/244 246/274/244 247/276/244
f 225/268/245 224/266/245 239/275/245 240/277/245
f 218/254/246 82/278/246 233/279/246
f 308/280/247 232/267/247 247/276/247
f 226/256/248 225/268/248 240/277/248 241/281/248
f 219/255/249 218/254/249 233/279/249 234/282/249
f 227/257/250 226/256/250 241/281/250 242/283/250
f 220/258/251 219/255/251 234/282/251 235/284/251
f 228/259/252 227/257/252 242/283/252 243/285/252
f 221/260/253 220/258/253 235/284/253 236/286/253
f 229/261/254 228/259/254 243/285/254 244/287/254
f 222/262/255 221/260/255 236/286/255 237/271/255
f 230/263/256 229/261/256 244/287/256 245/273/256
f 242/283/257 241/281/257 256/288/257 257/289/257
f 235/284/258 234/282/258 249/290/258 250/291/258
f 243/285/259 242/283/259 257/289/259 258/292/259
f 236/286/260 235/284/260 250/291/260 251/293/260
f 244/287/261 243/285/261 258/292/261 259/294/261
f 237/271/262 236/286/262 251/293/262 252/295/262
f 245/273/263 244/287/263 259/294/263 260/296/263
f 238/272/264 237/271/264 252/295/264 253/297/264
f 246/274/265 245/273/265 260/296/265 261/298/265
f 239/275/266 238/272/266 253/297/266 254/299/266
f 247/276/267 246/274/267 261/298/267 262/300/267
f 240/277/268 239/275/268 254/299/268 255/301/268
f 233/279/269 82/302/269 248/303/269
f 308/304/270 247/276/270 262/300/270
f 241/281/271 240/277/271 255/301/271 256/288/271
f 234/282/272 233/279/272 248/303/272 249/290/272
f 261/298/273 260/296/273 275/305/273 276/306/273
f 254/299/274 253/297/274 268/307/274 269/308/274
f 262/300/275 261/298/275 276/306/275 277/309/275
f 255/301/276 254/299/276 269/308/276 270/310/276
f 248/303/277 82/311/277 263/312/277
f 308/313/278 262/300/278 277/309/278
f 256/288/279 255/301/279 270/310/279 271/314/279
f 249/290/280 248/303/280 263/312/280 264/315/280
f 257/289/281 256/288/281 271/314/281 272/316/281
f 250/291/282 249/290/282 264/315/282 265/317/282
f 258/292/283 257/289/283 272/316/283 273/318/283
f 251/293/284 250/291/284 265/317/284 266/319/284
f 259/294/285 258/292/285 273/318/285 274/320/285
f 252/295/286 251/293/286 266/319/286 267/321/286
f 260/296/287 259/294/287 274/320/287 275/305/287
f 253/297/288 252/295/288 267/321/288 268/307/288
f 265/317/289 264/315/289 279/322/289 280/323/289
f 273/318/290 272/316/290 287/324/290 288/325/290
f 266/319/291 265/317/291 280/323/291 281/326/291
f 274/320/292 273/318/292 288/325/292 289/327/292
f 267/321/293 266/319/293 281/326/293 282/328/293
f 275/305/294 274/320/294 289/327/294 290/329/294
f 268/307/295 267/321/295 282/328/295 283/330/295
f 276/306/296 275/305/296 290/329/296 291/331/296
f 269/308/297 268/307/297 283/330/297 284/332/297
f 277/309/298 276/306/298 291/331/298 292/333/298
f 270/310/299 269/308/299 284/332/299 285/334/299
f 263/312/300 82/335/300 278/336/300
f 308/337/301 277/309/301 292/333/301
f 271/314/302 270/310/302 285/334/302 286/338/302
f 264/315/303 263/312/303 278/336/303 279/322/303
f 272/316/304 271/314/304 286/338/304 287/324/304
f 284/332/305 283/330/305 298/339/305 299/340/305
f 292/333/306 291/331/306 306/341/306 307/342/306
f 285/334/307 284/332/307 299/340/307 300/343/307
f 278/336/308 82/344/308 293/345/308
f 308/346/309 292/333/309 307/342/309
f 286/338/310 285/334/310 300/343/310 301/347/310
f 279/322/311 278/336/311 293/345/311 294/348/311
f 287/324/312 286/338/312 301/347/312 302/349/312
f 280/323/313 279/322/313 294/348/313 295/350/313
f 288/325/314 287/324/314 302/349/314 303/351/314
f 281/326/315 280/323/315 295/350/315 296/352/315
f 289/327/316 288/325/316 303/351/316 304/353/316
f 282/328/317 281/326/317 296/352/317 297/354/317
f 290/329/318 289/327/318 304/353/318 305/355/318
f 283/330/319 282/328/319 297/354/319 298/339/319
f 291/331/320 290/329/320 305/355/320 306/341/320
f 303/351/321 302/349/321 318/356/321 319/357/321
f 296/352/322 295/350/322 311/358/322 312/359/322
f 304/353/323 303/351/323 319/357/323 320/360/323
f 297/354/324 296/352/324 312/359/324 313/361/324
f 305/355/325 304/353/325 320/360/325 321/362/325
f 298/339/326 297/354/326 313/361/326 314/363/326
f 306/341/327 305/355/327 321/362/327 322/364/327
f 299/340/328 298/339/328 314/363/328 315/365/328
f 307/342/329 306/341/329 322/364/329 323/366/329
f 300/343/330 299/340/330 315/365/330 316/367/330
f 293/345/331 82/368/331 309/369/331
f 308/370/332 307/342/332 323/366/332
f 301/347/333 300/343/333 316/367/333 317/371/333
f 294/348/334 293/345/334 309/369/334 310/372/334
f 302/349/335 301/347/335 317/371/335 318/356/335
f 295/350/336 294/348/336 310/372/336 311/358/336
f 323/366/337 322/364/337 337/373/337 338/374/337
f 316/367/338 315/365/338 330/375/338 331/376/338
f 309/369/339 82/377/339 324/378/339
f 308/379/340 323/366/340 338/374/340
f 317/371/341 316/367/341 331/376/341 332/380/341
f 310/372/342 309/369/342 324/378/342 325/381/342
f 318/356/343 317/371/343 332/380/343 333/382/343
f 311/358/344 310/372/344 325/381/344 326/383/344
f 319/357/345 318/356/345 333/382/345 334/384/345
f 312/359/346 311/358/346 326/383/346 327/385/346
f 320/360/347 319/357/347 334/384/347 335/386/347
f 313/361/348 312/359/348 327/385/348 328/387/348
f 321/362/349 320/360/349 335/386/349 336/388/349
f 314/363/350 313/361/350 328/387/350 329/389/350
f 322/364/351 321/362/351 336/388/351 337/373/351
f 315/365/352 314/363/352 329/389/352 330/375/352
f 335/386/353 334/384/353 349/390/353 350/391/353
f 328/387/354 327/385/354 342/392/354 343/393/354
f 336/388/355 335/386/355 350/391/355 351/394/355
f 329/389/356 328/387/356 343/393/356 344/395/356
f 337/373/357 336/388/357 351/394/357 352/396/357
f 330/375/358 329/389/358 344/395/358 345/397/358
f 338/374/359 337/373/359 352/396/359 353/398/359
f 331/376/360 330/375/360 345/397/360 346/399/360
f 324/378/361 82/400/361 339/401/361
f 308/402/362 338/374/362 353/398/362
f 332/380/363 331/376/363 346/399/363 347/403/363
f 325/381/364 324/378/364 339/401/364 340/404/364
f 333/382/365 332/380/365 347/403/365 348/405/365
f 326/383/366 325/381/366 340/404/366 341/406/366
f 334/384/367 333/382/367 348/405/367 349/390/367
f 327/385/368 326/383/368 341/406/368 342/392/368
f 339/401/369 82/407/369 354/408/369
f 308/409/370 353/398/370 368/410/370
f 347/403/371 346/399/371 361/411/371 362/412/371
f 340/404/372 339/401/372 354/408/372 355/413/372
f 348/405/373 347/403/373 362/412/373 363/414/373
f 341/406/374 340/404/374 355/413/374 356/415/374
f 349/390/375 348/405/375 363/414/375 364/416/375
f 342/392/376 341/406/376 356/415/376 357/417/376
f 350/391/377 349/390/377 364/416/377 365/418/377
f 343/393/378 342/392/378 357/417/378 358/419/378
f 351/394/379 350/391/379 365/418/379 366/420/379
f 344/395/380 343/393/380 358/419/380 359/421/380
f 352/396/381 351/394/381 366/420/381 367/422/381
f 345/397/382 344/395/382 359/421/382 360/423/382
f 353/398/383 352/396/383 367/422/383 368/410/383
f 346/399/384 345/397/384 360/423/384 361/411/384
f 358/424/385 357/425/385 372/426/385 373/427/385
f 366/428/386 365/429/386 380/430/386 381/431/386
f 359/432/387 358/424/387 373/427/387 374/433/387
f 367/434/388 366/428/388 381/431/388 382/435/388
f 360/436/389 359/432/389 374/433/389 375/437/389
f 368/438/390 367/434/390 382/435/390 383/439/390
f 361/440/391 360/436/391 375/437/391 376/441/391
f 354/442/392 82/443/392 369/444/392
f 308/445/393 368/438/393 383/439/393
f 362/446/394 361/440/394 376/441/394 377/447/394
f 355/448/395 354/442/395 369/444/395 370/449/395
f 363/450/396 362/446/396 377/447/396 378/451/396
f 356/452/397 355/448/397 370/449/397 371/453/397
f 364/454/398 363/450/398 378/451/398 379/455/398
f 357/425/399 356/452/399 371/453/399 372/426/399
f 365/429/400 364/454/400 379/455/400 380/430/400
f 377/447/401 376/441/401 391/456/401 392/457/401
f 370/449/402 369/444/402 384/458/402 385/459/402
f 378/451/403 377/447/403 392/457/403 393/460/403
f 371/453/404 370/449/404 385/459/404 386/461/404
f 379/455/405 378/451/405 393/460/405 394/462/405
f 372/426/406 371/453/406 386/461/406 387/463/406
f 380/430/407 379/455/407 394/462/407 395/464/407
f 373/427/408 372/426/408 387/463/408 388/465/408
f 381/431/409 380/430/409 395/464/409 396/466/409
f 374/433/410 373/427/410 388/465/410 389/467/410
f 382/435/411 381/431/411 396/466/411 397/468/411
f 375/437/412 374/433/412 389/467/412 390/469/412
f 383/439/413 382/435/413 397/468/413 398/470/413
f 376/441/414 375/437/414 390/469/414 391/456/414
f 369/444/415 82/471/415 384/458/415
f 308/472/416 383/439/416 398/470/416
f 396/466/417 395/464/417 410/473/417 411/474/417
f 389/467/418 388/465/418 403/475/418 404/476/418
f 397/468/419 396/466/419 411/474/419 412/477/419
f 390/469/420 389/467/420 404/476/420 405/478/420
f 398/470/421 397/468/421 412/477/421 413/479/421
f 391/456/422 390/469/422 405/478/422 406/480/422
f 384/458/423 82/481/423 399/482/423
f 308/483/424 398/470/424 413/479/424
f 392/457/425 391/456/425 406/480/425 407/484/425
f 385/459/426 384/458/426 399/482/426 400/485/426
f 393/460/427 392/457/427 407/484/427 408/486/427
f 386/461/428 385/459/428 400/485/428 401/487/428
f 394/462/429 393/460/429 408/486/429 409/488/429
f 387/463/430 386/461/430 401/487/430 402/489/430
f 395/464/431 394/462/431 409/488/431 410/473/431
f 388/465/432 387/463/432 402/489/432 403/475/432
f 400/485/433 399/482/433 414/490/433 415/491/433
f 408/486/434 407/484/434 422/492/434 423/493/434
f 401/487/435 400/485/435 415/491/435 416/494/435
f 409/488/436 408/486/436 423/493/436 424/495/436
f 402/489/437 401/487/437 416/494/437 417/496/437
f 410/473/438 409/488/438 424/495/438 425/497/438
f 403/475/439 402/489/439 417/496/439 418/498/439
f 411/474/440 410/473/440 425/497/440 426/499/440
f 404/476/441 403/475/441 418/498/441 419/500/441
f 412/477/442 411/474/442 426/499/442 427/501/442
f 405/478/443 404/476/443 419/500/443 420/502/443
f 413/479/444 412/477/444 427/501/444 428/503/444
f 406/480/445 405/478/445 420/502/445 421/504/445
f 399/482/446 82/505/446 414/490/446
f 308/506/447 413/479/447 428/503/447
f 407/484/448 406/480/448 421/504/448 422/492/448
f 419/500/449 418/498/449 433/507/449 434/508/449
f 427/501/450 426/499/450 441/509/450 442/510/450
f 420/502/451 419/500/451 434/508/451 435/511/451
f 428/503/452 427/501/452 442/510/452 443/512/452
f 421/504/453 420/502/453 435/511/453 436/513/453
f 414/490/454 82/514/454 429/515/454
f 308/516/455 428/503/455 443/512/455
f 422/492/456 421/504/456 436/513/456 437/517/456
f 415/491/457 414/490/457 429/515/457 430/518/457
f 423/493/458 422/492/458 437/517/458 438/519/458
f 416/494/459 415/491/459 430/518/459 431/520/459
f 424/495/460 423/493/460 438/519/460 439/521/460
f 417/496/461 416/494/461 431/520/461 432/522/461
f 425/497/462 424/495/462 439/521/462 440/523/462
f 418/498/463 417/496/463 432/522/463 433/507/463
f 426/499/464 425/497/464 440/523/464 441/509/464
f 438/519/465 437/517/465 452/524/465 453/525/465
f 431/520/466 430/518/466 445/526/466 446/527/466
f 439/521/467 438/519/467 453/525/467 454/528/467
f 432/522/468 431/520/468 446/527/468 447/529/468
f 440/523/469 439/521/469 454/528/469 455/530/469
f 433/507/470 432/522/470 447/529/470 448/531/470
f 441/509/471 440/523/471 455/530/471 456/532/471
f 434/508/472 433/507/472 448/531/472 449/533/472
f 442/510/473 441/509/473 456/532/473 457/534/473
f 435/511/474 434/508/474 449/533/474 450/535/474
f 443/512/475 442/510/475 457/534/475 458/536/475
f 436/513/476 435/511/476 450/535/476 451/537/476
f 429/515/477 82/538/477 444/539/477
f 308/540/478 443/512/478 458/536/478
f 437/517/479 436/513/479 451/537/479 452/524/479
f 430/518/480 429/515/480 444/539/480 445/526/480
f 457/534/481 456/532/481 471/541/481 472/542/481
f 450/535/482 449/533/482 464/543/482 465/544/482
f 458/536/483 457/534/483 472/542/483 473/545/483
f 451/537/484 450/535/484 465/544/484 466/546/484
f 444/539/485 82/547/485 459/548/485
f 308/549/486 458/536/486 473/545/486
f 452/524/487 451/537/487 466/546/487 467/550/487
f 445/526/488 444/539/488 459/548/488 460/551/488
f 453/525/489 452/524/489 467/550/489 468/552/489
f 446/527/490 445/526/490 460/551/490 461/553/490
f 454/528/491 453/525/491 468/552/491 469/554/491
f 447/529/492 446/527/492 461/553/492 462/555/492
f 455/530/493 454/528/493 469/554/493 470/556/493
f 448/531/494 447/529/494 462/555/494 463/557/494
f 456/532/495 455/530/495 470/556/495 471/541/495
f 449/533/496 448/531/496 463/557/496 464/543/496
f 469/554/497 468/552/497 478/6/497 6/5/497
f 462/555/498 461/553/498 1/1/498 476/9/498
f 470/556/499 469/554/499 6/5/499 479/11/499
f 463/557/500 462/555/500 476/9/500 2/13/500
f 471/541/501 470/556/501 479/11/501 480/15/501
f 464/543/502 463/557/502 2/13/502 477/17/502
f 472/542/503 471/541/503 480/15/503 481/19/503
f 465/544/504 464/543/504 477/17/504 3/21/504
f 473/545/505 472/542/505 481/19/505 482/23/505
f 466/546/506 465/544/506 3/21/506 4/25/506
f 459/548/507 82/558/507 474/27/507
f 308/559/508 473/545/508 482/23/508
f 467/550/509 466/546/509 4/25/509 5/31/509
f 460/551/510 459/548/510 474/27/510 475/2/510
f 468/552/511 467/550/511 5/31/511 478/6/511
f 461/553/512 460/551/512 475/2/512 1/1/512
